<svg width="115" height="65" viewBox="0 0 115 65" fill="none" xmlns="http://www.w3.org/2000/svg">
<path d="M95.484 28.992V30H88.788V27.012C88.116 28.116 87.36 28.956 86.52 29.532C85.704 30.084 84.732 30.36 83.604 30.36C81.588 30.36 79.98 29.568 78.78 27.984C77.604 26.376 77.016 24.132 77.016 21.252V20.532C77.016 17.748 77.7 15.528 79.068 13.872C80.46 12.216 82.356 11.388 84.756 11.388C86.196 11.388 87.468 11.748 88.572 12.468V6.384C88.572 5.568 88.536 5.088 88.464 4.944C88.392 4.776 88.164 4.668 87.78 4.62L85.8 4.368V3.36H92.712V26.976C92.712 27.792 92.748 28.284 92.82 28.452C92.892 28.596 93.12 28.692 93.504 28.74L95.484 28.992ZM81.444 22.332C81.444 24.564 81.72 26.196 82.272 27.228C82.824 28.26 83.58 28.776 84.54 28.776C85.14 28.776 85.764 28.536 86.412 28.056C87.084 27.552 87.804 26.544 88.572 25.032V14.16C87.66 13.248 86.544 12.792 85.224 12.792C83.904 12.792 82.944 13.392 82.344 14.592C81.744 15.768 81.444 17.388 81.444 19.452V22.332Z" fill="black"/>
<path d="M95.812 29.1C96.196 29.46 96.664 29.76 97.216 30C97.744 30.24 98.392 30.36 99.16 30.36C100.144 30.36 100.972 30.144 101.644 29.712C102.292 29.28 102.724 28.668 102.94 27.876C103.732 28.74 104.608 29.376 105.568 29.784C106.504 30.168 107.464 30.36 108.448 30.36C110.104 30.36 111.34 29.904 112.156 28.992C112.972 28.056 113.38 26.892 113.38 25.5C113.38 24.084 112.864 22.944 111.832 22.08C110.8 21.192 108.976 20.748 106.36 20.748H103.084V17.832C103.084 15.84 103.348 14.484 103.876 13.764C104.38 13.02 105.088 12.648 106 12.648C106.6 12.648 107.152 12.804 107.656 13.116C108.16 13.404 108.52 13.956 108.736 14.772C108.928 15.564 108.892 16.716 108.628 18.228L112.588 17.652C112.78 16.548 112.66 15.528 112.228 14.592C111.772 13.632 111.016 12.864 109.96 12.288C108.904 11.688 107.56 11.388 105.928 11.388C104.08 11.388 102.652 11.688 101.644 12.288C100.636 12.888 99.94 13.68 99.556 14.664C99.148 15.648 98.944 16.704 98.944 17.832V26.148C98.944 27.372 98.836 28.14 98.62 28.452C98.404 28.764 98.164 28.92 97.9 28.92C97.468 28.92 96.988 28.668 96.46 28.164L95.812 29.1ZM106.864 28.452C106.24 28.452 105.628 28.296 105.028 27.984C104.404 27.648 103.756 27.036 103.084 26.148V22.008H105.784C106.96 22.008 107.812 22.284 108.34 22.836C108.868 23.388 109.132 24.252 109.132 25.428C109.132 26.388 108.94 27.132 108.556 27.66C108.172 28.188 107.608 28.452 106.864 28.452Z" fill="black"/>
<path d="M74.548 38.528V37.52H85.42C87.94 37.52 89.884 38.084 91.252 39.212C92.62 40.34 93.304 41.852 93.304 43.748V44.576C93.304 46.016 92.908 47.24 92.116 48.248C91.324 49.256 90.184 49.976 88.696 50.408L93.196 58.976C93.484 59.504 93.7 59.888 93.844 60.128C93.988 60.368 94.12 60.524 94.24 60.596C94.384 60.644 94.576 60.692 94.816 60.74L96.436 60.992V62H89.704L84.268 50.84H81.64V58.976C81.64 59.792 81.676 60.284 81.748 60.452C81.82 60.596 82.048 60.692 82.432 60.74L84.412 60.992V62H74.548V60.992L76.528 60.74C76.912 60.692 77.14 60.596 77.212 60.452C77.284 60.284 77.32 59.792 77.32 58.976V40.544C77.32 39.728 77.284 39.248 77.212 39.104C77.14 38.936 76.912 38.828 76.528 38.78L74.548 38.528ZM85.42 38.78H81.64V49.58H85.42C86.476 49.58 87.28 49.256 87.832 48.608C88.408 47.936 88.696 46.712 88.696 44.936V43.388C88.696 41.612 88.408 40.4 87.832 39.752C87.28 39.104 86.476 38.78 85.42 38.78Z" fill="black"/>
<path d="M94.548 38.528V37.52H105.384C108.024 37.52 109.992 38.132 111.288 39.356C112.608 40.556 113.268 42.164 113.268 44.18V45.008C113.268 47.024 112.608 48.644 111.288 49.868C109.992 51.092 108.024 51.704 105.384 51.704H101.64V58.976C101.64 59.792 101.676 60.284 101.748 60.452C101.82 60.596 102.048 60.692 102.432 60.74L105.132 60.992V62H94.548V60.992L96.528 60.74C96.912 60.692 97.14 60.596 97.212 60.452C97.284 60.284 97.32 59.792 97.32 58.976V40.544C97.32 39.728 97.284 39.248 97.212 39.104C97.14 38.936 96.912 38.828 96.528 38.78L94.548 38.528ZM105.384 38.78H101.64V50.444H105.384C106.44 50.444 107.244 50.024 107.796 49.184C108.372 48.344 108.66 47.192 108.66 45.728V43.46C108.66 41.996 108.372 40.856 107.796 40.04C107.244 39.2 106.44 38.78 105.384 38.78Z" fill="black"/>
<path d="M22.452 6.528V5.52H12.588V6.528L14.568 6.78C14.952 6.828 15.18 6.936 15.252 7.104C15.324 7.248 15.36 7.728 15.36 8.544V18.228L6.828 8.544C6.132 7.752 5.772 7.272 5.748 7.104C5.7 6.936 5.868 6.828 6.252 6.78L8.232 6.528V5.52H0.923999V6.528L2.904 6.78C3.144 6.804 3.336 6.852 3.48 6.924C3.624 6.996 3.804 7.152 4.02 7.392C4.236 7.632 4.584 8.016 5.064 8.544L10.104 14.232L3.876 26.976C3.612 27.48 3.408 27.852 3.264 28.092C3.12 28.332 2.952 28.488 2.76 28.56C2.568 28.632 2.304 28.692 1.968 28.74L0.348 28.992V30H7.188L13.02 17.544L15.36 20.208V26.976C15.36 27.792 15.324 28.284 15.252 28.452C15.18 28.596 14.952 28.692 14.568 28.74L12.588 28.992V30H22.452V28.992L20.472 28.74C20.088 28.692 19.86 28.596 19.788 28.452C19.716 28.284 19.68 27.792 19.68 26.976V8.544C19.68 7.728 19.716 7.248 19.788 7.104C19.86 6.936 20.088 6.828 20.472 6.78L22.452 6.528Z" fill="black"/>
<path d="M69.9 46.52H72.42V62H27.87V59.48L32.82 58.85C33.78 58.73 34.35 58.49 34.53 58.13C34.71 57.71 34.8 56.48 34.8 54.44V8.36C34.8 6.32 34.71 5.12 34.53 4.76C34.35 4.34 33.78 4.07 32.82 3.95L27.87 3.32V0.799999H71.52V16.28H69L66.12 6.29C65.94 5.57 65.73 5.06 65.49 4.76C65.31 4.4 64.92 4.19 64.32 4.13C63.72 4.01 62.7 3.95 61.26 3.95H45.6V29.51H55.86C57.3 29.51 58.32 29.48 58.92 29.42C59.52 29.3 59.91 29.09 60.09 28.79C60.33 28.43 60.54 27.89 60.72 27.17L62.7 19.88H65.22V42.29H62.7L60.72 35C60.54 34.28 60.33 33.77 60.09 33.47C59.91 33.11 59.52 32.9 58.92 32.84C58.32 32.72 57.3 32.66 55.86 32.66H45.6V58.85H62.16C63.6 58.85 64.62 58.82 65.22 58.76C65.82 58.64 66.21 58.43 66.39 58.13C66.63 57.77 66.84 57.23 67.02 56.51L69.9 46.52Z" fill="black"/>
<circle cx="16" cy="47" r="4" fill="black"/>
</svg>
