<svg width="90" height="94" viewBox="0 0 90 94" fill="none" xmlns="http://www.w3.org/2000/svg">
<g filter="url(#filter0_d_6_2247)">
<path d="M41.5861 16.8723C43.6986 15.6527 46.3018 15.6527 48.4142 16.8723L65.9201 26.9797C68.0326 28.1994 69.3342 30.4536 69.3342 32.8928V53.1077C69.3341 55.5469 68.0325 57.8011 65.9201 59.0208L48.4142 69.1282C46.3018 70.3478 43.6986 70.3477 41.5861 69.1282L24.0793 59.0208C21.9669 57.8011 20.6663 55.5468 20.6662 53.1077V32.8928C20.6662 30.4536 21.9669 28.1994 24.0793 26.9797L41.5861 16.8723Z" fill="url(#paint0_linear_6_2247)" stroke="white" stroke-width="1.36552"/>
<mask id="mask0_6_2247" style="mask-type:alpha" maskUnits="userSpaceOnUse" x="20" y="15" width="50" height="56">
<path d="M41.757 17.1682C43.7639 16.0096 46.2365 16.0096 48.2433 17.1682L65.7502 27.2756C67.7567 28.4343 68.9924 30.5757 68.9924 32.8928V53.1077C68.9923 55.4248 67.7568 57.5662 65.7502 58.7249L48.2433 68.8323C46.2366 69.9909 43.7638 69.9908 41.757 68.8323L24.2502 58.7249C22.2434 57.5662 21.0071 55.4249 21.007 53.1077V32.8928C21.007 30.5756 22.2434 28.4343 24.2502 27.2756L41.757 17.1682Z" fill="url(#paint1_linear_6_2247)" stroke="black" stroke-width="0.682759"/>
</mask>
<g mask="url(#mask0_6_2247)">
<g opacity="0.7">
<circle cx="13.9347" cy="22.8576" r="38.5759" fill="url(#paint2_linear_6_2247)" style="mix-blend-mode:soft-light"/>
</g>
<g filter="url(#filter1_d_6_2247)">
<path d="M44.7516 33.771C45.015 33.3188 45.6682 33.3188 45.9316 33.771L48.3907 37.993C48.4871 38.1586 48.6488 38.2761 48.8361 38.3166L53.6114 39.3507C54.1228 39.4614 54.3247 40.0827 53.976 40.4729L50.7206 44.1163C50.5928 44.2592 50.5311 44.4493 50.5504 44.64L51.0426 49.5011C51.0953 50.0217 50.5668 50.4056 50.088 50.1946L45.6169 48.2244C45.4415 48.1471 45.2417 48.1471 45.0663 48.2244L40.5952 50.1946C40.1164 50.4056 39.5879 50.0217 39.6406 49.5011L40.1328 44.64C40.1521 44.4493 40.0903 44.2592 39.9626 44.1163L36.7072 40.4729C36.3585 40.0827 36.5604 39.4614 37.0718 39.3507L41.847 38.3166C42.0344 38.2761 42.1961 38.1586 42.2925 37.993L44.7516 33.771Z" fill="white"/>
</g>
</g>
</g>
<defs>
<filter id="filter0_d_6_2247" x="-1.4276" y="-14.331" width="92.8552" height="108.27" filterUnits="userSpaceOnUse" color-interpolation-filters="sRGB">
<feFlood flood-opacity="0" result="BackgroundImageFix"/>
<feColorMatrix in="SourceAlpha" type="matrix" values="0 0 0 0 0 0 0 0 0 0 0 0 0 0 0 0 0 0 127 0" result="hardAlpha"/>
<feOffset dy="4.09655"/>
<feGaussianBlur stdDeviation="9.55862"/>
<feComposite in2="hardAlpha" operator="out"/>
<feColorMatrix type="matrix" values="0 0 0 0 0.147867 0 0 0 0 0.144608 0 0 0 0 0.184798 0 0 0 0.09 0"/>
<feBlend mode="normal" in2="BackgroundImageFix" result="effect1_dropShadow_6_2247"/>
<feBlend mode="normal" in="SourceGraphic" in2="effect1_dropShadow_6_2247" result="shape"/>
</filter>
<filter id="filter1_d_6_2247" x="12.6364" y="11.5836" width="68.1414" height="67.3459" filterUnits="userSpaceOnUse" color-interpolation-filters="sRGB">
<feFlood flood-opacity="0" result="BackgroundImageFix"/>
<feColorMatrix in="SourceAlpha" type="matrix" values="0 0 0 0 0 0 0 0 0 0 0 0 0 0 0 0 0 0 127 0" result="hardAlpha"/>
<feOffset dx="1.36552" dy="3.41379"/>
<feGaussianBlur stdDeviation="12.631"/>
<feComposite in2="hardAlpha" operator="out"/>
<feColorMatrix type="matrix" values="0 0 0 0 0.143391 0 0 0 0 0.141832 0 0 0 0 0.367904 0 0 0 0.5 0"/>
<feBlend mode="normal" in2="BackgroundImageFix" result="effect1_dropShadow_6_2247"/>
<feBlend mode="normal" in="SourceGraphic" in2="effect1_dropShadow_6_2247" result="shape"/>
</filter>
<linearGradient id="paint0_linear_6_2247" x1="-14.7414" y1="-16.0586" x2="77.4115" y2="-21.5422" gradientUnits="userSpaceOnUse">
<stop stop-color="#ED6E44"/>
<stop offset="0.583019" stop-color="#FD745B"/>
<stop offset="1" stop-color="#F49F45"/>
</linearGradient>
<linearGradient id="paint1_linear_6_2247" x1="-14.7414" y1="-16.0586" x2="77.4115" y2="-21.5422" gradientUnits="userSpaceOnUse">
<stop stop-color="#ED6944"/>
<stop offset="0.583019" stop-color="#4592FD"/>
<stop offset="1" stop-color="#F45C45"/>
</linearGradient>
<linearGradient id="paint2_linear_6_2247" x1="13.9347" y1="-15.7183" x2="13.9347" y2="61.4335" gradientUnits="userSpaceOnUse">
<stop stop-color="#737373"/>
<stop offset="1" stop-color="#D9D9D9"/>
</linearGradient>
</defs>
</svg>
