<svg width="89" height="94" viewBox="0 0 89 94" fill="none" xmlns="http://www.w3.org/2000/svg">
<g filter="url(#filter0_d_6_2290)">
<path d="M41.1514 17.126C43.2478 15.9157 45.8304 15.9156 47.9268 17.126L65.3008 27.1562C67.3972 28.3666 68.6884 30.6037 68.6885 33.0244V53.0869C68.6883 55.5075 67.3971 57.7438 65.3008 58.9541L47.9268 68.9854C45.8304 70.1957 43.2478 70.1956 41.1514 68.9854L23.7773 58.9541C21.681 57.7438 20.3888 55.5075 20.3887 53.0869V33.0244C20.3888 30.6037 21.681 28.3666 23.7773 27.1562L41.1514 17.126Z" fill="url(#paint0_linear_6_2290)" stroke="white" stroke-width="1.35517"/>
<mask id="mask0_6_2290" style="mask-type:alpha" maskUnits="userSpaceOnUse" x="21" y="16" width="48" height="54">
<path d="M42.0543 17.7604C43.9411 16.6711 46.2658 16.6711 48.1526 17.7604L65.5266 27.7913C67.4134 28.8807 68.5757 30.8939 68.5757 33.0726V53.1343C68.5757 55.313 67.4134 57.3262 65.5266 58.4156L48.1526 68.4465C46.2658 69.5358 43.9411 69.5358 42.0543 68.4465L24.6803 58.4156C22.7935 57.3262 21.6312 55.313 21.6312 53.1343V33.0726C21.6312 30.8939 22.7935 28.8807 24.6803 27.7913L42.0543 17.7604Z" fill="url(#paint1_linear_6_2290)"/>
</mask>
<g mask="url(#mask0_6_2290)">
<g filter="url(#filter1_d_6_2290)">
<path d="M44.2764 32.9412C44.3326 32.9432 44.3882 32.9547 44.4414 32.9729C44.6673 33.0503 44.7071 33.0845 44.8934 33.3615C44.937 33.4263 44.969 33.4984 44.9867 33.5745C45.0319 33.7685 45.0705 33.9642 45.1044 34.1605C45.1298 34.3003 45.1551 34.4401 45.1812 34.5841C45.208 34.7329 45.2348 34.8817 45.2624 35.0351C45.7374 37.5192 46.417 39.8859 48.5984 41.4122C49.7845 42.0982 50.9972 42.5021 52.3376 42.7789C52.7944 42.8814 53.0546 42.9415 53.3653 43.2348C53.4392 43.3044 53.4902 43.3947 53.5192 43.492C53.566 43.6494 53.5778 43.7188 53.5734 43.854C53.5689 43.9877 53.5209 44.1191 53.4248 44.2123C53.0314 44.5934 52.5113 44.6334 51.9512 44.7566C50.9588 44.9996 50.0398 45.2747 49.1291 45.7422C49.0435 45.786 48.9579 45.8297 48.8697 45.8748C47.3526 46.6861 46.4665 48.035 45.9026 49.6342C45.5136 50.9494 45.1984 52.2883 45.0207 53.6489C44.9787 53.8527 44.9653 53.9174 44.8753 54.0665C44.7647 54.2499 44.5635 54.3605 44.3494 54.368C44.3109 54.3693 44.2761 54.3702 44.2427 54.3705C43.9468 54.3738 43.6963 54.1568 43.6238 53.8699C43.6112 53.8199 43.5986 53.77 43.586 53.72C43.5488 53.5732 43.5116 53.4263 43.4733 53.2751C43.3734 52.8724 43.2821 52.4683 43.1932 52.063C42.6763 49.7373 42.0655 47.5469 40.0452 46.0782C38.8314 45.3063 37.5226 44.895 36.1477 44.5128C36.0359 44.4814 35.9241 44.4499 35.8088 44.4175C35.7085 44.3902 35.6081 44.3629 35.5047 44.3347C35.3129 44.2642 35.2681 44.2478 35.1362 44.1225C35.0359 44.0272 34.9681 43.9006 34.9497 43.7635C34.9394 43.6865 34.9378 43.631 34.9451 43.5582C34.962 43.3904 35.0565 43.2385 35.1991 43.1487C35.7463 42.8042 36.3754 42.6867 37.0067 42.5242C38.9967 41.9848 40.7318 41.1742 41.8571 39.3641C42.7341 37.8031 43.0884 36.0282 43.3841 34.2821C43.4205 34.0749 43.4205 34.0749 43.4575 33.8636C43.4877 33.6784 43.4877 33.6784 43.5184 33.4895C43.6529 33.0559 43.8611 32.9269 44.2764 32.9412Z" fill="white"/>
</g>
<g opacity="0.7">
<circle cx="14.2736" cy="23.1139" r="38.2836" fill="url(#paint2_linear_6_2290)" style="mix-blend-mode:soft-light"/>
</g>
</g>
</g>
<defs>
<filter id="filter0_d_6_2290" x="-1.11724" y="-0.0206895" width="92.2345" height="94.2345" filterUnits="userSpaceOnUse" color-interpolation-filters="sRGB">
<feFlood flood-opacity="0" result="BackgroundImageFix"/>
<feColorMatrix in="SourceAlpha" type="matrix" values="0 0 0 0 0 0 0 0 0 0 0 0 0 0 0 0 0 0 127 0" result="hardAlpha"/>
<feOffset dy="4.09655"/>
<feGaussianBlur stdDeviation="9.55862"/>
<feComposite in2="hardAlpha" operator="out"/>
<feColorMatrix type="matrix" values="0 0 0 0 0.147867 0 0 0 0 0.144608 0 0 0 0 0.184798 0 0 0 0.09 0"/>
<feBlend mode="normal" in2="BackgroundImageFix" result="effect1_dropShadow_6_2290"/>
<feBlend mode="normal" in="SourceGraphic" in2="effect1_dropShadow_6_2290" result="shape"/>
</filter>
<filter id="filter1_d_6_2290" x="11.2251" y="11.2574" width="68.775" height="71.5718" filterUnits="userSpaceOnUse" color-interpolation-filters="sRGB">
<feFlood flood-opacity="0" result="BackgroundImageFix"/>
<feColorMatrix in="SourceAlpha" type="matrix" values="0 0 0 0 0 0 0 0 0 0 0 0 0 0 0 0 0 0 127 0" result="hardAlpha"/>
<feOffset dx="1.35517" dy="3.38793"/>
<feGaussianBlur stdDeviation="12.5353"/>
<feComposite in2="hardAlpha" operator="out"/>
<feColorMatrix type="matrix" values="0 0 0 0 0.143391 0 0 0 0 0.141832 0 0 0 0 0.367904 0 0 0 0.5 0"/>
<feBlend mode="normal" in2="BackgroundImageFix" result="effect1_dropShadow_6_2290"/>
<feBlend mode="normal" in="SourceGraphic" in2="effect1_dropShadow_6_2290" result="shape"/>
</filter>
<linearGradient id="paint0_linear_6_2290" x1="-14.7498" y1="-15.5556" x2="76.7049" y2="-20.9977" gradientUnits="userSpaceOnUse">
<stop stop-color="#4449ED"/>
<stop offset="0.583019" stop-color="#4592FD"/>
<stop offset="1" stop-color="#8245F4"/>
</linearGradient>
<linearGradient id="paint1_linear_6_2290" x1="-14.1853" y1="-15.5078" x2="77.2694" y2="-20.9499" gradientUnits="userSpaceOnUse">
<stop stop-color="#4449ED"/>
<stop offset="0.583019" stop-color="#4592FD"/>
<stop offset="1" stop-color="#8245F4"/>
</linearGradient>
<linearGradient id="paint2_linear_6_2290" x1="14.2736" y1="-15.1697" x2="14.2736" y2="61.3976" gradientUnits="userSpaceOnUse">
<stop stop-color="#737373"/>
<stop offset="1" stop-color="#D9D9D9"/>
</linearGradient>
</defs>
</svg>
