<svg width="89" height="94" viewBox="0 0 89 94" fill="none" xmlns="http://www.w3.org/2000/svg">
<g filter="url(#filter0_d_6_2349)">
<path d="M41.0342 17.0273C43.1146 15.8262 45.6783 15.8262 47.7588 17.0273L65 26.9814C67.0804 28.1826 68.3623 30.4024 68.3623 32.8047V52.7129C68.3623 55.1151 67.0804 57.335 65 58.5361L47.7588 68.4912C45.6783 69.6923 43.1146 69.6923 41.0342 68.4912L23.793 58.5361C21.7127 57.3349 20.4307 55.1151 20.4307 52.7129V32.8047C20.4307 30.4025 21.7126 28.1826 23.793 26.9814L41.0342 17.0273Z" fill="url(#paint0_linear_6_2349)" stroke="white" stroke-width="1.34483"/>
<mask id="mask0_6_2349" style="mask-type:alpha" maskUnits="userSpaceOnUse" x="20" y="16" width="49" height="55">
<path d="M41.2021 17.9561C43.1786 16.815 45.6144 16.815 47.5908 17.9561L64.832 27.9102C66.8084 29.0513 68.0254 31.1602 68.0254 33.4424V53.3506C68.0254 55.6327 66.8084 57.7417 64.832 58.8828L47.5908 68.8369C45.6144 69.978 43.1786 69.978 41.2021 68.8369L23.9609 58.8828C21.9847 57.7417 20.7676 55.6327 20.7676 53.3506V33.4424C20.7676 31.1603 21.9846 29.0513 23.9609 27.9102L41.2021 17.9561Z" fill="url(#paint1_linear_6_2349)" stroke="black" stroke-width="0.672414"/>
</mask>
<g mask="url(#mask0_6_2349)">
<g opacity="0.7">
<circle cx="13.8012" cy="23.5595" r="37.9914" fill="url(#paint2_linear_6_2349)" style="mix-blend-mode:soft-light"/>
</g>
</g>
<g filter="url(#filter1_d_6_2349)">
<path d="M44.136 35.5229C44.1735 35.5293 44.2109 35.5356 44.2495 35.5421C44.4829 35.6176 44.6141 35.7625 44.7292 35.961C44.7539 36.003 44.7786 36.045 44.804 36.0882C44.83 36.1334 44.8559 36.1786 44.8827 36.2252C44.9393 36.3218 44.9959 36.4184 45.0525 36.515C45.0816 36.5649 45.1107 36.6149 45.1397 36.6649C45.2747 36.8961 45.4122 37.1259 45.5499 37.3557C45.5763 37.3999 45.6027 37.4442 45.63 37.4898C45.8184 37.805 46.0092 38.1189 46.2011 38.4324C46.3778 38.7215 46.5518 39.0119 46.7252 39.3028C46.9871 39.7419 47.2521 40.1793 47.5193 40.6156C47.6447 40.8207 47.7698 41.026 47.895 41.2313C47.9411 41.3069 47.9872 41.3826 48.0334 41.4582C48.0667 41.5129 48.1001 41.5676 48.1334 41.6223C48.3898 41.5516 48.6212 41.4434 48.8597 41.3327C48.9037 41.3125 48.9476 41.2922 48.9929 41.2714C49.0867 41.2282 49.1805 41.1849 49.2742 41.1415C49.5169 41.0293 49.7599 40.9176 50.0028 40.8059C50.0502 40.784 50.0975 40.7622 50.1463 40.7398C50.6547 40.5057 51.1649 40.2753 51.6767 40.0476C51.7156 40.0302 51.7545 40.0129 51.7947 39.995C51.9048 39.9459 52.015 39.897 52.1252 39.8481C52.1723 39.8272 52.1723 39.8272 52.2204 39.8058C52.4834 39.6898 52.7073 39.6046 52.9983 39.6936C53.218 39.7862 53.3326 39.8865 53.4483 40.0902C53.5596 40.4032 53.468 40.7121 53.3905 41.0234C53.3739 41.0917 53.3739 41.0917 53.3571 41.1614C53.3205 41.3124 53.2833 41.4633 53.2461 41.6142C53.22 41.7214 53.1939 41.8287 53.1679 41.9359C53.1058 42.1911 53.0434 42.4463 52.9808 42.7014C52.9052 43.0095 52.8301 43.3178 52.7551 43.626C52.6742 43.9581 52.5932 44.2901 52.5117 44.622C52.3799 45.1593 52.2492 45.6967 52.1217 46.2349C52.0751 46.4316 52.028 46.6282 51.981 46.8248C51.9557 46.9316 51.9305 47.0384 51.9055 47.1452C51.8711 47.2925 51.836 47.4397 51.8007 47.5869C51.7908 47.6301 51.7809 47.6734 51.7707 47.718C51.698 48.0172 51.6052 48.265 51.3151 48.439C51.1038 48.5198 50.8659 48.4976 50.6413 48.4961C50.5821 48.4963 50.5229 48.4966 50.4619 48.4969C50.2978 48.4976 50.1337 48.4972 49.9697 48.4967C49.7926 48.4963 49.6155 48.4969 49.4385 48.4974C49.0917 48.4981 48.745 48.498 48.3982 48.4975C48.1164 48.4971 47.8346 48.497 47.5528 48.4972C47.4927 48.4973 47.4927 48.4973 47.4313 48.4973C47.3498 48.4974 47.2684 48.4974 47.1869 48.4975C46.423 48.498 45.659 48.4974 44.895 48.4965C44.2395 48.4957 43.5839 48.4959 42.9283 48.4966C42.1671 48.4976 41.4059 48.4979 40.6447 48.4974C40.5635 48.4973 40.4823 48.4973 40.4012 48.4972C40.3413 48.4972 40.3413 48.4972 40.2801 48.4971C39.9987 48.497 39.7172 48.4972 39.4357 48.4976C39.0927 48.4981 38.7497 48.498 38.4067 48.4971C38.2317 48.4966 38.0567 48.4965 37.8816 48.497C37.692 48.4976 37.5023 48.4969 37.3127 48.4961C37.2296 48.4966 37.2296 48.4966 37.1448 48.4972C36.7795 48.494 36.6227 48.4502 36.3585 48.2145C36.2415 48.037 36.2055 47.8575 36.1604 47.6547C36.1496 47.6086 36.1388 47.5626 36.1277 47.5151C36.0909 47.3571 36.0549 47.1989 36.019 47.0407C35.9927 46.9268 35.9663 46.813 35.9398 46.6991C35.8947 46.5048 35.8497 46.3105 35.8049 46.1162C35.6676 45.5201 35.527 44.9247 35.386 44.3294C35.3077 43.9986 35.2297 43.6678 35.1516 43.337C35.0862 43.0597 35.0206 42.7823 34.9549 42.505C34.8919 42.2396 34.8294 41.9742 34.7671 41.7087C34.7438 41.6095 34.7203 41.5103 34.6967 41.4112C34.6641 41.2741 34.6319 41.137 34.5999 40.9998C34.5903 40.9599 34.5806 40.9199 34.5707 40.8788C34.5081 40.6075 34.4557 40.3506 34.5568 40.0822C34.6745 39.9168 34.8134 39.7971 35.0054 39.7071C35.3868 39.6647 35.6537 39.7445 35.9877 39.9093C36.0804 39.9529 36.173 39.9964 36.2656 40.0399C36.3128 40.0625 36.36 40.0851 36.4086 40.1083C36.6318 40.2141 36.8578 40.3141 37.0836 40.4147C37.4204 40.5657 37.7563 40.7182 38.0917 40.8717C38.1628 40.9042 38.234 40.9367 38.3051 40.9693C38.4435 41.0325 38.5817 41.0959 38.7199 41.1595C39.0823 41.3256 39.4454 41.4826 39.8205 41.6223C39.8365 41.5954 39.8524 41.5685 39.8688 41.5408C40.1675 41.0375 40.4685 40.536 40.7802 40.0396C41.005 39.6812 41.2209 39.3193 41.4314 38.9533C41.5998 38.6619 41.7761 38.3754 41.9556 38.0898C42.1615 37.7621 42.3616 37.4323 42.5546 37.0977C42.7297 36.7947 42.9063 36.4926 43.0884 36.1933C43.1181 36.1435 43.1181 36.1435 43.1485 36.0927C43.3007 35.8445 43.4794 35.5896 43.7896 35.5078C43.9158 35.4929 44.0115 35.5002 44.136 35.5229Z" fill="white"/>
</g>
</g>
<defs>
<filter id="filter0_d_6_2349" x="-1.61724" y="0.432924" width="91.2345" height="93.2809" filterUnits="userSpaceOnUse" color-interpolation-filters="sRGB">
<feFlood flood-opacity="0" result="BackgroundImageFix"/>
<feColorMatrix in="SourceAlpha" type="matrix" values="0 0 0 0 0 0 0 0 0 0 0 0 0 0 0 0 0 0 127 0" result="hardAlpha"/>
<feOffset dy="4.09655"/>
<feGaussianBlur stdDeviation="9.55862"/>
<feComposite in2="hardAlpha" operator="out"/>
<feColorMatrix type="matrix" values="0 0 0 0 0.147867 0 0 0 0 0.144608 0 0 0 0 0.184798 0 0 0 0.09 0"/>
<feBlend mode="normal" in2="BackgroundImageFix" result="effect1_dropShadow_6_2349"/>
<feBlend mode="normal" in="SourceGraphic" in2="effect1_dropShadow_6_2349" result="shape"/>
</filter>
<filter id="filter1_d_6_2349" x="28.5" y="31.5" width="31" height="25" filterUnits="userSpaceOnUse" color-interpolation-filters="sRGB">
<feFlood flood-opacity="0" result="BackgroundImageFix"/>
<feColorMatrix in="SourceAlpha" type="matrix" values="0 0 0 0 0 0 0 0 0 0 0 0 0 0 0 0 0 0 127 0" result="hardAlpha"/>
<feOffset dy="2"/>
<feGaussianBlur stdDeviation="3"/>
<feComposite in2="hardAlpha" operator="out"/>
<feColorMatrix type="matrix" values="0 0 0 0 0.095899 0 0 0 0 0.689046 0 0 0 0 0.486759 0 0 0 1 0"/>
<feBlend mode="normal" in2="BackgroundImageFix" result="effect1_dropShadow_6_2349"/>
<feBlend mode="normal" in="SourceGraphic" in2="effect1_dropShadow_6_2349" result="shape"/>
</filter>
<linearGradient id="paint0_linear_6_2349" x1="-14.4397" y1="-15.4049" x2="76.3169" y2="-20.8055" gradientUnits="userSpaceOnUse">
<stop stop-color="#16BE6A"/>
<stop offset="0.5" stop-color="#16BE8C"/>
<stop offset="1" stop-color="#16BE6A"/>
</linearGradient>
<linearGradient id="paint1_linear_6_2349" x1="-14.4397" y1="-14.7672" x2="76.3169" y2="-20.1678" gradientUnits="userSpaceOnUse">
<stop stop-color="#4449ED"/>
<stop offset="0.583019" stop-color="#4592FD"/>
<stop offset="1" stop-color="#8245F4"/>
</linearGradient>
<linearGradient id="paint2_linear_6_2349" x1="13.8012" y1="-14.4319" x2="13.8012" y2="61.5509" gradientUnits="userSpaceOnUse">
<stop stop-color="#737373"/>
<stop offset="1" stop-color="#D9D9D9"/>
</linearGradient>
</defs>
</svg>
