<svg width="129" height="129" viewBox="0 0 129 129" fill="none" xmlns="http://www.w3.org/2000/svg">
<path opacity="0.1" d="M49.5 8.66025C58.782 3.30127 70.218 3.30127 79.5 8.66025L105.359 23.5897C114.641 28.9487 120.359 38.8525 120.359 49.5705V79.4295C120.359 90.1475 114.641 100.051 105.359 105.41L79.5 120.34C70.218 125.699 58.782 125.699 49.5 120.34L23.6414 105.41C14.3593 100.051 8.64136 90.1475 8.64136 79.4295V49.5705C8.64136 38.8525 14.3593 28.9487 23.6414 23.5897L49.5 8.66025Z" fill="#2757D2"/>
<path fill-rule="evenodd" clip-rule="evenodd" d="M53.9455 42.2798C47.0228 43.8859 41.875 50.0835 41.875 57.5C41.875 58.5355 41.0355 59.375 40 59.375C38.9645 59.375 38.125 58.5355 38.125 57.5C38.125 46.7895 46.7895 38.125 57.5 38.125C58.1755 38.125 58.7988 38.4884 59.1316 39.0762C59.4644 39.664 59.4553 40.3854 59.1078 40.9647L56.4828 45.3397C55.9501 46.2276 54.7983 46.5156 53.9104 45.9828C53.0224 45.45 52.7345 44.2983 53.2672 43.4103L53.9455 42.2798ZM90 70.625C91.0355 70.625 91.875 71.4645 91.875 72.5C91.875 83.2105 83.2105 91.875 72.5 91.875C71.8245 91.875 71.2012 91.5116 70.8684 90.9238C70.5356 90.336 70.5447 89.6146 70.8922 89.0353L73.5172 84.6603C74.0499 83.7724 75.2017 83.4844 76.0896 84.0172C76.9776 84.55 77.2655 85.7017 76.7328 86.5897L76.0545 87.7202C82.9772 86.1141 88.125 79.9165 88.125 72.5C88.125 71.4645 88.9645 70.625 90 70.625Z" fill="#2757D2"/>
<path d="M76 55.5249L66.6001 50.4499C65.6001 49.9249 64.425 49.9249 63.425 50.4499L54.025 55.5249C53.35 55.8999 52.925 56.6249 52.925 57.4499C52.925 58.2749 53.35 58.9999 54.025 59.3749L63.425 64.4499C63.925 64.7249 64.475 64.8499 65.025 64.8499C65.575 64.8499 66.125 64.7249 66.625 64.4499L76.025 59.3749C76.7 58.9999 77.125 58.2749 77.125 57.4499C77.1 56.6249 76.675 55.8999 76 55.5249Z" fill="#2757D2"/>
<path opacity="0.4" d="M61.85 66.1748L53.1 61.7998C52.425 61.4748 51.65 61.4998 51 61.8998C50.35 62.2998 49.975 62.9748 49.975 63.7248V71.9998C49.975 73.4248 50.775 74.7248 52.05 75.3498L60.8 79.7248C61.1 79.8748 61.425 79.9498 61.775 79.9498C62.175 79.9498 62.55 79.8498 62.9 79.6248C63.55 79.2248 63.925 78.5498 63.925 77.7998V69.5248C63.925 68.0998 63.15 66.8248 61.85 66.1748Z" fill="#2757D2"/>
<path opacity="0.4" d="M78.975 61.8998C78.325 61.4998 77.55 61.4748 76.875 61.7998L68.125 66.1748C66.85 66.8248 66.05 68.0998 66.05 69.5248V77.7998C66.05 78.5498 66.425 79.2248 67.075 79.6248C67.425 79.8498 67.8 79.9498 68.2 79.9498C68.525 79.9498 68.85 79.8748 69.175 79.7248L77.925 75.3498C79.2 74.6998 80 73.4248 80 71.9998V63.7248C80 62.9748 79.625 62.2998 78.975 61.8998Z" fill="#2757D2"/>
</svg>
