<svg width="60" height="60" viewBox="0 0 60 60" fill="none" xmlns="http://www.w3.org/2000/svg">
<path fill-rule="evenodd" clip-rule="evenodd" d="M18.9455 7.27984C12.0228 8.88591 6.875 15.0835 6.875 22.5C6.875 23.5355 6.03553 24.375 5 24.375C3.96447 24.375 3.125 23.5355 3.125 22.5C3.125 11.7895 11.7895 3.125 22.5 3.125C23.1755 3.125 23.7988 3.48836 24.1316 4.07619C24.4644 4.66401 24.4553 5.38543 24.1078 5.96467L21.4828 10.3397C20.9501 11.2276 19.7983 11.5156 18.9104 10.9828C18.0224 10.45 17.7345 9.29829 18.2672 8.41033L18.9455 7.27984ZM55 35.625C56.0355 35.625 56.875 36.4645 56.875 37.5C56.875 48.2105 48.2105 56.875 37.5 56.875C36.8245 56.875 36.2012 56.5116 35.8684 55.9238C35.5356 55.336 35.5447 54.6146 35.8922 54.0353L38.5172 49.6603C39.0499 48.7724 40.2017 48.4844 41.0896 49.0172C41.9776 49.55 42.2655 50.7017 41.7328 51.5897L41.0545 52.7202C47.9772 51.1141 53.125 44.9165 53.125 37.5C53.125 36.4645 53.9645 35.625 55 35.625Z" fill="#2757D2"/>
<path d="M41 20.5249L31.6001 15.4499C30.6001 14.9249 29.425 14.9249 28.425 15.4499L19.025 20.5249C18.35 20.8999 17.925 21.6249 17.925 22.4499C17.925 23.2749 18.35 23.9999 19.025 24.3749L28.425 29.4499C28.925 29.7249 29.475 29.8499 30.025 29.8499C30.575 29.8499 31.125 29.7249 31.625 29.4499L41.025 24.3749C41.7 23.9999 42.125 23.2749 42.125 22.4499C42.1 21.6249 41.675 20.8999 41 20.5249Z" fill="#2757D2"/>
<path opacity="0.4" d="M26.85 31.1748L18.1 26.7998C17.425 26.4748 16.65 26.4998 16 26.8998C15.35 27.2998 14.975 27.9748 14.975 28.7248V36.9998C14.975 38.4248 15.775 39.7248 17.05 40.3498L25.8 44.7248C26.1 44.8748 26.425 44.9498 26.775 44.9498C27.175 44.9498 27.55 44.8498 27.9 44.6248C28.55 44.2248 28.925 43.5498 28.925 42.7998V34.5248C28.925 33.0998 28.15 31.8248 26.85 31.1748Z" fill="#2757D2"/>
<path opacity="0.4" d="M43.975 26.8998C43.325 26.4998 42.55 26.4748 41.875 26.7998L33.125 31.1748C31.85 31.8248 31.05 33.0998 31.05 34.5248V42.7998C31.05 43.5498 31.425 44.2248 32.075 44.6248C32.425 44.8498 32.8 44.9498 33.2 44.9498C33.525 44.9498 33.85 44.8748 34.175 44.7248L42.925 40.3498C44.2 39.6998 45 38.4248 45 36.9998V28.7248C45 27.9748 44.625 27.2998 43.975 26.8998Z" fill="#2757D2"/>
</svg>
