<svg width="129" height="129" viewBox="0 0 129 129" fill="none" xmlns="http://www.w3.org/2000/svg">
<path opacity="0.1" d="M49.5 8.66025C58.782 3.30127 70.218 3.30127 79.5 8.66025L105.359 23.5897C114.641 28.9487 120.359 38.8525 120.359 49.5705V79.4295C120.359 90.1475 114.641 100.051 105.359 105.41L79.5 120.34C70.218 125.699 58.782 125.699 49.5 120.34L23.6414 105.41C14.3593 100.051 8.64136 90.1475 8.64136 79.4295V49.5705C8.64136 38.8525 14.3593 28.9487 23.6414 23.5897L49.5 8.66025Z" fill="#CCB910"/>
<path opacity="0.4" d="M85.251 52.35C85.251 53.7 84.526 54.9249 83.376 55.5499L79.026 57.8999L75.326 59.875L67.651 64.0249C66.826 64.4749 65.926 64.7 65.001 64.7C64.076 64.7 63.176 64.4749 62.351 64.0249L46.626 55.5499C45.476 54.9249 44.751 53.7 44.751 52.35C44.751 51 45.476 49.7749 46.626 49.1499L51.551 46.4999L55.476 44.375L62.351 40.675C64.001 39.775 66.001 39.775 67.651 40.675L83.376 49.1499C84.526 49.7749 85.251 51 85.251 52.35Z" fill="#CCB910"/>
<path opacity="0.4" d="M59.7493 66.9749L45.1243 59.65C43.9993 59.075 42.6993 59.15 41.6243 59.8C40.5493 60.45 39.9243 61.6 39.9243 62.85V76.675C39.9243 79.075 41.2493 81.225 43.3993 82.3L58.0243 89.6001C58.5243 89.8501 59.0743 89.975 59.6243 89.975C60.2743 89.975 60.9243 89.8001 61.4993 89.425C62.5743 88.775 63.1993 87.625 63.1993 86.375V72.55C63.2243 70.2 61.8993 68.0499 59.7493 66.9749Z" fill="#CCB910"/>
<path opacity="0.4" d="M90.075 62.8751V76.7001C90.075 79.0751 88.7501 81.225 86.6001 82.3L71.9751 89.625C71.4751 89.875 70.925 90.0001 70.375 90.0001C69.725 90.0001 69.0751 89.8252 68.4751 89.4502C67.4251 88.8002 66.775 87.6501 66.775 86.4001V72.6C66.775 70.2 68.1001 68.05 70.2501 66.975L75.625 64.3L79.375 62.425L84.8751 59.6751C86.0001 59.1001 87.3001 59.1501 88.3751 59.8251C89.4251 60.4751 90.075 61.6251 90.075 62.8751Z" fill="#CCB910"/>
<path d="M79.025 57.8999L75.3251 59.875L51.55 46.4999L55.4751 44.375L78.425 57.325C78.675 57.475 78.875 57.6749 79.025 57.8999Z" fill="#CCB910"/>
<path d="M79.375 62.4248V68.0999C79.375 69.1249 78.525 69.9749 77.5 69.9749C76.475 69.9749 75.625 69.1249 75.625 68.0999V64.2998L79.375 62.4248Z" fill="#CCB910"/>
</svg>
