<svg width="60" height="60" viewBox="0 0 60 60" fill="none" xmlns="http://www.w3.org/2000/svg">
<path opacity="0.4" d="M50.251 17.35C50.251 18.7 49.526 19.9249 48.376 20.5499L44.026 22.8999L40.326 24.875L32.651 29.0249C31.826 29.4749 30.926 29.7 30.001 29.7C29.076 29.7 28.176 29.4749 27.351 29.0249L11.626 20.5499C10.476 19.9249 9.75098 18.7 9.75098 17.35C9.75098 16 10.476 14.7749 11.626 14.1499L16.551 11.4999L20.476 9.37495L27.351 5.675C29.001 4.775 31.001 4.775 32.651 5.675L48.376 14.1499C49.526 14.7749 50.251 16 50.251 17.35Z" fill="#CCB910"/>
<path opacity="0.4" d="M24.7493 31.9749L10.1243 24.65C8.99928 24.075 7.6993 24.15 6.6243 24.8C5.5493 25.45 4.92432 26.6 4.92432 27.85V41.675C4.92432 44.075 6.24928 46.225 8.39928 47.3L23.0243 54.6001C23.5243 54.8501 24.0743 54.975 24.6243 54.975C25.2743 54.975 25.9243 54.8 26.4993 54.425C27.5743 53.775 28.1993 52.625 28.1993 51.375V37.55C28.2243 35.2 26.8993 33.0499 24.7493 31.9749Z" fill="#CCB910"/>
<path opacity="0.4" d="M55.075 27.8751V41.7001C55.075 44.0751 53.7501 46.225 51.6001 47.3L36.9751 54.625C36.4751 54.875 35.925 55.0001 35.375 55.0001C34.725 55.0001 34.0751 54.8252 33.4751 54.4502C32.4251 53.8002 31.775 52.6501 31.775 51.4001V37.6C31.775 35.2 33.1001 33.05 35.2501 31.975L40.625 29.3L44.375 27.425L49.8751 24.6751C51.0001 24.1001 52.3001 24.1501 53.3751 24.8251C54.4251 25.4751 55.075 26.6251 55.075 27.8751Z" fill="#CCB910"/>
<path d="M44.025 22.8999L40.3251 24.875L16.55 11.4999L20.4751 9.375L43.425 22.325C43.675 22.475 43.875 22.6749 44.025 22.8999Z" fill="#CCB910"/>
<path d="M44.375 27.4248V33.0999C44.375 34.1249 43.525 34.9749 42.5 34.9749C41.475 34.9749 40.625 34.1249 40.625 33.0999V29.2998L44.375 27.4248Z" fill="#CCB910"/>
</svg>
