<svg width="60" height="60" viewBox="0 0 60 60" fill="none" xmlns="http://www.w3.org/2000/svg">
<path opacity="0.4" d="M37.5 56.875C36.825 56.875 36.2 56.5 35.875 55.925C35.55 55.35 35.55 54.625 35.9 54.05L38.525 49.675C39.05 48.775 40.2 48.5 41.1 49.025C42 49.55 42.275 50.7 41.75 51.6L41.075 52.7251C47.975 51.1001 53.15 44.9 53.15 37.5C53.15 36.475 54 35.625 55.025 35.625C56.05 35.625 56.9 36.475 56.9 37.5C56.875 48.175 48.175 56.875 37.5 56.875Z" fill="#EF30C5"/>
<path opacity="0.4" d="M5 24.375C3.975 24.375 3.125 23.525 3.125 22.5C3.125 11.825 11.825 3.125 22.5 3.125C23.175 3.125 23.8 3.50001 24.125 4.07501C24.45 4.65001 24.45 5.37501 24.1 5.95001L21.475 10.325C20.95 11.225 19.8 11.5 18.9 10.975C18 10.45 17.725 9.29996 18.25 8.39996L18.925 7.27493C12.025 8.89993 6.85001 15.1 6.85001 22.5C6.87501 23.525 6.025 24.375 5 24.375Z" fill="#EF30C5"/>
<path d="M26.675 34.625L18.825 30.4C18 29.95 17 29.95 16.175 30.4L8.32501 34.625C7.75001 34.925 7.40002 35.55 7.40002 36.225C7.40002 36.9 7.75001 37.5251 8.32501 37.8251L16.175 42.0501C16.6 42.2751 17.05 42.3751 17.5 42.3751C17.95 42.3751 18.4 42.2751 18.825 42.0501L26.675 37.8251C27.25 37.5251 27.6 36.9 27.6 36.225C27.6 35.55 27.225 34.95 26.675 34.625Z" fill="#EF30C5"/>
<path d="M14.875 43.525L7.57499 39.8751C7.02499 39.6001 6.375 39.6251 5.825 39.9501C5.3 40.2751 4.97501 40.8502 4.97501 41.4752V48.375C4.97501 49.575 5.62497 50.65 6.69997 51.175L14 54.8251C14.25 54.9501 14.525 55.0251 14.8 55.0251C15.125 55.0251 15.45 54.9252 15.75 54.7502C16.275 54.4252 16.6 53.85 16.6 53.225V46.3252C16.625 45.1252 15.95 44.05 14.875 43.525Z" fill="#EF30C5"/>
<path d="M29.15 39.9501C28.625 39.6251 27.975 39.6001 27.4 39.8751L20.1 43.525C19.025 44.05 18.375 45.1252 18.375 46.3252V53.225C18.375 53.85 18.7 54.4252 19.225 54.7502C19.525 54.9252 19.85 55.0251 20.175 55.0251C20.45 55.0251 20.725 54.9501 20.975 54.8251L28.275 51.175C29.35 50.65 30 49.575 30 48.375V41.4752C30 40.8502 29.675 40.2751 29.15 39.9501Z" fill="#EF30C5"/>
<path d="M51.675 9.57496L43.825 5.34995C43 4.89995 42 4.89995 41.175 5.34995L33.325 9.57496C32.75 9.87496 32.4 10.4998 32.4 11.1748C32.4 11.8498 32.75 12.4749 33.325 12.7749L41.175 16.9999C41.6 17.2249 42.05 17.3249 42.5 17.3249C42.95 17.3249 43.4 17.2249 43.825 16.9999L51.675 12.7749C52.25 12.4749 52.6 11.8498 52.6 11.1748C52.6 10.4748 52.225 9.87496 51.675 9.57496Z" fill="#EF30C5"/>
<path d="M39.875 18.4502L32.575 14.8001C32.025 14.5251 31.375 14.5502 30.825 14.8752C30.3 15.2002 29.975 15.7752 29.975 16.4002V23.3002C29.975 24.5002 30.625 25.5752 31.7 26.1002L39 29.7502C39.25 29.8752 39.525 29.9501 39.8 29.9501C40.125 29.9501 40.45 29.8501 40.75 29.6751C41.275 29.3501 41.6 28.7752 41.6 28.1502V21.2502C41.625 20.0502 40.95 18.9752 39.875 18.4502Z" fill="#EF30C5"/>
<path d="M54.15 14.8752C53.625 14.5502 52.975 14.5251 52.4 14.8001L45.1 18.4502C44.025 18.9752 43.375 20.0502 43.375 21.2502V28.1502C43.375 28.7752 43.7 29.3501 44.225 29.6751C44.525 29.8501 44.85 29.9501 45.175 29.9501C45.45 29.9501 45.725 29.8752 45.975 29.7502L53.275 26.1002C54.35 25.5752 55 24.5002 55 23.3002V16.4002C55 15.7752 54.675 15.2002 54.15 14.8752Z" fill="#EF30C5"/>
</svg>
