<svg width="171" height="179" viewBox="0 0 171 179" fill="none" xmlns="http://www.w3.org/2000/svg">
<g opacity="0.1" filter="url(#filter0_d_16_761)">
<path d="M70.5 21.6603C79.782 16.3013 91.218 16.3013 100.5 21.6603L126.359 36.5897C135.641 41.9487 141.359 51.8525 141.359 62.5705V92.4295C141.359 103.147 135.641 113.051 126.359 118.41L100.5 133.34C91.218 138.699 79.782 138.699 70.5 133.34L44.6414 118.41C35.3593 113.051 29.6414 103.147 29.6414 92.4295V62.5705C29.6414 51.8525 35.3593 41.9487 44.6414 36.5897L70.5 21.6603Z" fill="#EF30C5"/>
</g>
<path opacity="0.4" d="M93.5 104.875C92.825 104.875 92.2 104.5 91.875 103.925C91.55 103.35 91.55 102.625 91.9 102.05L94.525 97.675C95.05 96.775 96.2 96.5 97.1 97.025C98 97.55 98.275 98.7 97.75 99.6L97.075 100.725C103.975 99.1001 109.15 92.9 109.15 85.5C109.15 84.475 110 83.625 111.025 83.625C112.05 83.625 112.9 84.475 112.9 85.5C112.875 96.175 104.175 104.875 93.5 104.875Z" fill="#EF30C5"/>
<path opacity="0.4" d="M61 72.375C59.975 72.375 59.125 71.525 59.125 70.5C59.125 59.825 67.825 51.125 78.5 51.125C79.175 51.125 79.8 51.5 80.125 52.075C80.45 52.65 80.45 53.375 80.1 53.95L77.475 58.325C76.95 59.225 75.8 59.5 74.9 58.975C74 58.45 73.725 57.3 74.25 56.4L74.925 55.2749C68.025 56.8999 62.85 63.1 62.85 70.5C62.875 71.525 62.025 72.375 61 72.375Z" fill="#EF30C5"/>
<path d="M82.675 82.625L74.825 78.4C74 77.95 73 77.95 72.175 78.4L64.325 82.625C63.75 82.925 63.4 83.55 63.4 84.225C63.4 84.9 63.75 85.5251 64.325 85.8251L72.175 90.0501C72.6 90.2751 73.05 90.3751 73.5 90.3751C73.95 90.3751 74.4 90.2751 74.825 90.0501L82.675 85.8251C83.25 85.5251 83.6 84.9 83.6 84.225C83.6 83.55 83.225 82.95 82.675 82.625Z" fill="#EF30C5"/>
<path d="M70.875 91.525L63.575 87.8751C63.025 87.6001 62.375 87.6251 61.825 87.9501C61.3 88.2751 60.975 88.8502 60.975 89.4752V96.375C60.975 97.575 61.625 98.65 62.7 99.175L70 102.825C70.25 102.95 70.525 103.025 70.8 103.025C71.125 103.025 71.45 102.925 71.75 102.75C72.275 102.425 72.6 101.85 72.6 101.225V94.3252C72.625 93.1252 71.95 92.05 70.875 91.525Z" fill="#EF30C5"/>
<path d="M85.15 87.9501C84.625 87.6251 83.975 87.6001 83.4 87.8751L76.1 91.525C75.025 92.05 74.375 93.1252 74.375 94.3252V101.225C74.375 101.85 74.7 102.425 75.225 102.75C75.525 102.925 75.85 103.025 76.175 103.025C76.45 103.025 76.725 102.95 76.975 102.825L84.275 99.175C85.35 98.65 86 97.575 86 96.375V89.4752C86 88.8502 85.675 88.2751 85.15 87.9501Z" fill="#EF30C5"/>
<path d="M107.675 57.575L99.825 53.35C99 52.9 98 52.9 97.175 53.35L89.325 57.575C88.75 57.875 88.4 58.4998 88.4 59.1748C88.4 59.8498 88.75 60.4749 89.325 60.7749L97.175 64.9999C97.6 65.2249 98.05 65.3249 98.5 65.3249C98.95 65.3249 99.4 65.2249 99.825 64.9999L107.675 60.7749C108.25 60.4749 108.6 59.8498 108.6 59.1748C108.6 58.4748 108.225 57.875 107.675 57.575Z" fill="#EF30C5"/>
<path d="M95.875 66.4502L88.575 62.8001C88.025 62.5251 87.375 62.5502 86.825 62.8752C86.3 63.2002 85.975 63.7752 85.975 64.4002V71.3002C85.975 72.5002 86.625 73.5752 87.7 74.1002L95 77.7502C95.25 77.8752 95.525 77.9501 95.8 77.9501C96.125 77.9501 96.45 77.8501 96.75 77.6751C97.275 77.3501 97.6 76.7752 97.6 76.1502V69.2502C97.625 68.0502 96.95 66.9752 95.875 66.4502Z" fill="#EF30C5"/>
<path d="M110.15 62.8752C109.625 62.5502 108.975 62.5251 108.4 62.8001L101.1 66.4502C100.025 66.9752 99.375 68.0502 99.375 69.2502V76.1502C99.375 76.7752 99.7 77.3501 100.225 77.6751C100.525 77.8501 100.85 77.9501 101.175 77.9501C101.45 77.9501 101.725 77.8752 101.975 77.7502L109.275 74.1002C110.35 73.5752 111 72.5002 111 71.3002V64.4002C111 63.7752 110.675 63.2002 110.15 62.8752Z" fill="#EF30C5"/>
<defs>
<filter id="filter0_d_16_761" x="0.641357" y="0.641113" width="169.717" height="177.718" filterUnits="userSpaceOnUse" color-interpolation-filters="sRGB">
<feFlood flood-opacity="0" result="BackgroundImageFix"/>
<feColorMatrix in="SourceAlpha" type="matrix" values="0 0 0 0 0 0 0 0 0 0 0 0 0 0 0 0 0 0 127 0" result="hardAlpha"/>
<feOffset dy="12"/>
<feGaussianBlur stdDeviation="14.5"/>
<feComposite in2="hardAlpha" operator="out"/>
<feColorMatrix type="matrix" values="0 0 0 0 0.925063 0 0 0 0 0.948039 0 0 0 0 0.982503 0 0 0 1 0"/>
<feBlend mode="normal" in2="BackgroundImageFix" result="effect1_dropShadow_16_761"/>
<feBlend mode="normal" in="SourceGraphic" in2="effect1_dropShadow_16_761" result="shape"/>
</filter>
</defs>
</svg>
