<svg width="60" height="60" viewBox="0 0 60 60" fill="none" xmlns="http://www.w3.org/2000/svg">
<path opacity="0.4" d="M55 19.525V23.775C55 25.7 52.95 26.85 51.25 25.95C47.575 23.975 43.15 23.2 38.5 24.175C35.5 24.8 32.725 26.2 30.45 28.125C29.15 29.2 28 30.475 27.025 31.875C25.675 33.85 24.675 36.1 24.175 38.5C23.2 43.15 23.975 47.575 25.95 51.25C26.85 52.95 25.7 55 23.775 55H19.525C11.5 55 5 48.5 5 40.475V19.525C5 11.5 11.5 5 19.525 5H40.475C48.5 5 55 11.5 55 19.525Z" fill="#2757D2"/>
<path d="M30.45 28.125C29.15 29.2 28 30.475 27.025 31.875H5V28.125H30.45Z" fill="#2757D2"/>
<path d="M15 22.5C13.975 22.5 13.125 21.65 13.125 20.625V15.625C13.125 14.6 13.975 13.75 15 13.75C16.025 13.75 16.875 14.6 16.875 15.625V20.625C16.875 21.65 16.025 22.5 15 22.5Z" fill="#2757D2"/>
<path d="M25 22.5C23.975 22.5 23.125 21.65 23.125 20.625V15.625C23.125 14.6 23.975 13.75 25 13.75C26.025 13.75 26.875 14.6 26.875 15.625V20.625C26.875 21.65 26.025 22.5 25 22.5Z" fill="#2757D2"/>
<path d="M15 46.875C13.975 46.875 13.125 46.025 13.125 45V40C13.125 38.975 13.975 38.125 15 38.125C16.025 38.125 16.875 38.975 16.875 40V45C16.875 46.025 16.025 46.875 15 46.875Z" fill="#2757D2"/>
<path d="M45 20H35C33.975 20 33.125 19.15 33.125 18.125C33.125 17.1 33.975 16.25 35 16.25H45C46.025 16.25 46.875 17.1 46.875 18.125C46.875 19.15 46.025 20 45 20Z" fill="#2757D2"/>
<path d="M42.5 27.5C34.225 27.5 27.5 34.225 27.5 42.5C27.5 50.775 34.225 57.5 42.5 57.5C50.775 57.5 57.5 50.775 57.5 42.5C57.5 34.225 50.775 27.5 42.5 27.5ZM49.825 45.5C49.425 46.475 48.85 47.35 48.1 48.1C46.6 49.6 44.625 50.425 42.5 50.425C40.8 50.425 39.2 49.875 37.85 48.875V49.225C37.85 50 37.225 50.65 36.425 50.65C35.65 50.65 35 50.025 35 49.225V45.625C35 44.85 35.625 44.2 36.425 44.2H40.025C40.8 44.2 41.45 44.825 41.45 45.625C41.45 46.35 40.925 46.9 40.225 47C42.125 47.925 44.55 47.625 46.075 46.1C46.55 45.625 46.925 45.05 47.175 44.425C47.475 43.7 48.3 43.35 49.025 43.65C49.775 43.925 50.125 44.775 49.825 45.5ZM50 39.4C50 40.175 49.375 40.825 48.575 40.825H44.975C44.2 40.825 43.55 40.2 43.55 39.4C43.55 38.675 44.075 38.125 44.775 38.025C42.875 37.1 40.45 37.4 38.9 38.925C38.475 39.35 38.15 39.825 37.9 40.35C37.65 40.875 37.15 41.175 36.625 41.175C36.425 41.175 36.225 41.125 36.025 41.05C35.325 40.725 35 39.875 35.35 39.15C35.75 38.325 36.275 37.575 36.9 36.925C38.4 35.425 40.375 34.6 42.5 34.6C44.2 34.6 45.8 35.15 47.15 36.15V35.825C47.15 35.05 47.775 34.4 48.575 34.4C49.375 34.4 50 35 50 35.8V39.4Z" fill="#2757D2"/>
</svg>
