<svg width="129" height="129" viewBox="0 0 129 129" fill="none" xmlns="http://www.w3.org/2000/svg">
<path opacity="0.1" d="M49.5 8.66025C58.782 3.30127 70.218 3.30127 79.5 8.66025L105.359 23.5897C114.641 28.9487 120.359 38.8525 120.359 49.5705V79.4295C120.359 90.1475 114.641 100.051 105.359 105.41L79.5 120.34C70.218 125.699 58.782 125.699 49.5 120.34L23.6414 105.41C14.3593 100.051 8.64136 90.1475 8.64136 79.4295V49.5705C8.64136 38.8525 14.3593 28.9487 23.6414 23.5897L49.5 8.66025Z" fill="#2757D2"/>
<path opacity="0.4" d="M91 54.525V58.775C91 60.7 88.95 61.85 87.25 60.95C83.575 58.975 79.15 58.2 74.5 59.175C71.5 59.8 68.725 61.2 66.45 63.125C65.15 64.2 64 65.475 63.025 66.875C61.675 68.85 60.675 71.1 60.175 73.5C59.2 78.15 59.975 82.575 61.95 86.25C62.85 87.95 61.7 90 59.775 90H55.525C47.5 90 41 83.5 41 75.475V54.525C41 46.5 47.5 40 55.525 40H76.475C84.5 40 91 46.5 91 54.525Z" fill="#2757D2"/>
<path d="M66.45 63.125C65.15 64.2 64 65.475 63.025 66.875H41V63.125H66.45Z" fill="#2757D2"/>
<path d="M51 57.5C49.975 57.5 49.125 56.65 49.125 55.625V50.625C49.125 49.6 49.975 48.75 51 48.75C52.025 48.75 52.875 49.6 52.875 50.625V55.625C52.875 56.65 52.025 57.5 51 57.5Z" fill="#2757D2"/>
<path d="M61 57.5C59.975 57.5 59.125 56.65 59.125 55.625V50.625C59.125 49.6 59.975 48.75 61 48.75C62.025 48.75 62.875 49.6 62.875 50.625V55.625C62.875 56.65 62.025 57.5 61 57.5Z" fill="#2757D2"/>
<path d="M51 81.875C49.975 81.875 49.125 81.025 49.125 80V75C49.125 73.975 49.975 73.125 51 73.125C52.025 73.125 52.875 73.975 52.875 75V80C52.875 81.025 52.025 81.875 51 81.875Z" fill="#2757D2"/>
<path d="M81 55H71C69.975 55 69.125 54.15 69.125 53.125C69.125 52.1 69.975 51.25 71 51.25H81C82.025 51.25 82.875 52.1 82.875 53.125C82.875 54.15 82.025 55 81 55Z" fill="#2757D2"/>
<path d="M78.5 62.5C70.225 62.5 63.5 69.225 63.5 77.5C63.5 85.775 70.225 92.5 78.5 92.5C86.775 92.5 93.5 85.775 93.5 77.5C93.5 69.225 86.775 62.5 78.5 62.5ZM85.825 80.5C85.425 81.475 84.85 82.35 84.1 83.1C82.6 84.6 80.625 85.425 78.5 85.425C76.8 85.425 75.2 84.875 73.85 83.875V84.225C73.85 85 73.225 85.65 72.425 85.65C71.65 85.65 71 85.025 71 84.225V80.625C71 79.85 71.625 79.2 72.425 79.2H76.025C76.8 79.2 77.45 79.825 77.45 80.625C77.45 81.35 76.925 81.9 76.225 82C78.125 82.925 80.55 82.625 82.075 81.1C82.55 80.625 82.925 80.05 83.175 79.425C83.475 78.7 84.3 78.35 85.025 78.65C85.775 78.925 86.125 79.775 85.825 80.5ZM86 74.4C86 75.175 85.375 75.825 84.575 75.825H80.975C80.2 75.825 79.55 75.2 79.55 74.4C79.55 73.675 80.075 73.125 80.775 73.025C78.875 72.1 76.45 72.4 74.9 73.925C74.475 74.35 74.15 74.825 73.9 75.35C73.65 75.875 73.15 76.175 72.625 76.175C72.425 76.175 72.225 76.125 72.025 76.05C71.325 75.725 71 74.875 71.35 74.15C71.75 73.325 72.275 72.575 72.9 71.925C74.4 70.425 76.375 69.6 78.5 69.6C80.2 69.6 81.8 70.15 83.15 71.15V70.825C83.15 70.05 83.775 69.4 84.575 69.4C85.375 69.4 86 70 86 70.8V74.4Z" fill="#2757D2"/>
</svg>
