<svg width="171" height="179" viewBox="0 0 171 179" fill="none" xmlns="http://www.w3.org/2000/svg">
<g opacity="0.1" filter="url(#filter0_d_6_1948)">
<path d="M70.5 21.6603C79.782 16.3013 91.218 16.3013 100.5 21.6603L126.359 36.5897C135.641 41.9487 141.359 51.8525 141.359 62.5705V92.4295C141.359 103.147 135.641 113.051 126.359 118.41L100.5 133.34C91.218 138.699 79.782 138.699 70.5 133.34L44.6414 118.41C35.3593 113.051 29.6414 103.147 29.6414 92.4295V62.5705C29.6414 51.8525 35.3593 41.9487 44.6414 36.5897L70.5 21.6603Z" fill="#EF30C5"/>
</g>
<path d="M79.075 60.925C79.05 60.7 79.025 60.5 78.975 60.275C78.95 60.1 78.925 59.925 78.875 59.725C78.8 59.425 78.7 59.1 78.575 58.8C78.275 57.925 77.825 57.125 77.25 56.375C76.925 55.975 76.575 55.575 76.175 55.25C74.575 53.8 72.5 53 70.325 53C65.45 53 61.5 56.95 61.5 61.825C61.5 64 62.3 66.075 63.75 67.675C64.075 68.075 64.475 68.425 64.875 68.75C65.625 69.325 66.425 69.775 67.3 70.075C67.6 70.2 67.925 70.3 68.225 70.375C68.425 70.425 68.6 70.45 68.775 70.475C69 70.525 69.2 70.55 69.425 70.575C69.725 70.6 70.025 70.625 70.325 70.625C75.175 70.625 79.125 66.675 79.125 61.825C79.125 61.525 79.1 61.225 79.075 60.925Z" fill="#EF30C5"/>
<path d="M109.25 88.35C109 88.025 108.675 87.7 108.325 87.425C108.275 87.375 108.2 87.3 108.125 87.25C107.45 86.725 106.7 86.3 105.925 86C105.85 85.95 105.775 85.925 105.7 85.925C105.425 85.825 105.15 85.725 104.875 85.65C104.45 85.55 104 85.475 103.575 85.425C103.275 85.4 102.975 85.375 102.675 85.375C97.825 85.375 93.875 89.325 93.875 94.175C93.875 94.475 93.9 94.775 93.925 95.075C93.975 95.5 94.05 95.95 94.15 96.375C94.225 96.65 94.325 96.925 94.425 97.2C94.425 97.275 94.45 97.35 94.5 97.425C94.8 98.2 95.225 98.95 95.75 99.625C95.8 99.7 95.875 99.75 95.925 99.825C96.2 100.175 96.525 100.5 96.85 100.75C98.45 102.2 100.5 103 102.675 103C107.55 103 111.5 99.05 111.5 94.175C111.5 92 110.7 89.95 109.25 88.35Z" fill="#EF30C5"/>
<path d="M70.325 85.375C70.025 85.375 69.725 85.4 69.425 85.425C69 85.475 68.55 85.55 68.125 85.65C67.85 85.725 67.575 85.825 67.3 85.925C67.225 85.925 67.15 85.95 67.075 86C66.3 86.3 65.55 86.725 64.875 87.25C64.8 87.3 64.75 87.375 64.675 87.425C64.325 87.7 64 88.025 63.75 88.35C62.3 89.95 61.5 92 61.5 94.175C61.5 99.05 65.45 103 70.325 103C72.5 103 74.575 102.2 76.175 100.75C76.575 100.425 76.925 100.025 77.25 99.625C77.775 98.95 78.2 98.2 78.5 97.425C78.55 97.35 78.575 97.275 78.575 97.2C78.675 96.925 78.775 96.65 78.85 96.375C78.95 95.95 79.025 95.5 79.075 95.075C79.1 94.775 79.125 94.475 79.125 94.175C79.125 89.325 75.175 85.375 70.325 85.375Z" fill="#EF30C5"/>
<path d="M102.675 53C100.5 53 98.45 53.8 96.85 55.25C96.525 55.5 96.2 55.825 95.925 56.175C95.875 56.225 95.8 56.3 95.75 56.375C95.225 57.05 94.8 57.8 94.5 58.575C94.45 58.65 94.425 58.725 94.425 58.8C94.325 59.075 94.225 59.35 94.15 59.625C94.05 60.05 93.975 60.5 93.925 60.925C93.9 61.225 93.875 61.525 93.875 61.825C93.875 66.675 97.825 70.625 102.675 70.625C102.975 70.625 103.275 70.6 103.575 70.575C104 70.525 104.45 70.45 104.875 70.35C105.15 70.275 105.425 70.175 105.7 70.075C105.775 70.075 105.85 70.05 105.925 70C106.7 69.7 107.45 69.275 108.125 68.75C108.525 68.425 108.925 68.075 109.25 67.675C110.7 66.075 111.5 64 111.5 61.825C111.5 56.95 107.55 53 102.675 53Z" fill="#EF30C5"/>
<path opacity="0.4" d="M95.925 99.825C95.875 99.75 95.8 99.7 95.75 99.625C95.225 98.95 94.8 98.2 94.5 97.425C94.525 97.5 94.55 97.575 94.575 97.65C89.55 99.75 83.55 99.775 78.425 97.65C78.45 97.575 78.475 97.5 78.5 97.425C78.2 98.2 77.775 98.95 77.25 99.625C76.925 100.025 76.575 100.425 76.175 100.75C79.375 102.225 82.925 103 86.5 103C90.15 103 93.625 102.25 96.85 100.75C96.525 100.5 96.2 100.175 95.925 99.825ZM65.25 78C65.25 75.225 65.8 72.45 66.85 69.925C66.875 69.925 66.925 69.95 66.95 69.95C66.65 69.825 66.325 69.675 66.05 69.525C65.65 69.3 65.25 69.05 64.875 68.75C64.475 68.425 64.075 68.075 63.75 67.675C62.275 70.875 61.5 74.425 61.5 78C61.5 81.65 62.25 85.125 63.75 88.35C64 88.025 64.325 87.7 64.675 87.425C64.75 87.375 64.8 87.3 64.875 87.25C65.55 86.725 66.3 86.3 67.075 86C67 86.025 66.925 86.05 66.85 86.075C65.775 83.55 65.25 80.825 65.25 78ZM109.25 67.675C108.925 68.075 108.525 68.425 108.125 68.75C107.45 69.275 106.7 69.7 105.925 70C106 69.975 106.075 69.95 106.15 69.925C107.2 72.45 107.75 75.225 107.75 78C107.75 80.825 107.225 83.55 106.15 86.075C106.075 86.05 106 86.025 105.925 86C106.7 86.3 107.45 86.725 108.125 87.25C108.2 87.3 108.275 87.375 108.325 87.425C108.675 87.7 109 88.025 109.25 88.35C110.75 85.125 111.5 81.65 111.5 78C111.5 74.425 110.725 70.875 109.25 67.675ZM86.5 53C82.925 53 79.375 53.775 76.175 55.25C76.575 55.575 76.925 55.975 77.25 56.375C77.55 56.75 77.8 57.15 78.025 57.55C78.175 57.825 78.325 58.15 78.45 58.45C78.45 58.425 78.425 58.375 78.425 58.35C83.525 56.225 89.55 56.25 94.575 58.35C94.55 58.425 94.525 58.5 94.5 58.575C94.8 57.8 95.225 57.05 95.75 56.375C95.8 56.3 95.875 56.225 95.925 56.175C96.2 55.825 96.525 55.5 96.85 55.25C93.625 53.75 90.15 53 86.5 53Z" fill="#EF30C5"/>
<defs>
<filter id="filter0_d_6_1948" x="0.641357" y="0.641113" width="169.717" height="177.718" filterUnits="userSpaceOnUse" color-interpolation-filters="sRGB">
<feFlood flood-opacity="0" result="BackgroundImageFix"/>
<feColorMatrix in="SourceAlpha" type="matrix" values="0 0 0 0 0 0 0 0 0 0 0 0 0 0 0 0 0 0 127 0" result="hardAlpha"/>
<feOffset dy="12"/>
<feGaussianBlur stdDeviation="14.5"/>
<feComposite in2="hardAlpha" operator="out"/>
<feColorMatrix type="matrix" values="0 0 0 0 0.925063 0 0 0 0 0.948039 0 0 0 0 0.982503 0 0 0 1 0"/>
<feBlend mode="normal" in2="BackgroundImageFix" result="effect1_dropShadow_6_1948"/>
<feBlend mode="normal" in="SourceGraphic" in2="effect1_dropShadow_6_1948" result="shape"/>
</filter>
</defs>
</svg>
