<svg width="61" height="60" viewBox="0 0 61 60" fill="none" xmlns="http://www.w3.org/2000/svg">
<path d="M23.075 12.925C23.05 12.7 23.025 12.5 22.975 12.275C22.95 12.1 22.925 11.925 22.875 11.725C22.8 11.425 22.7 11.1 22.575 10.8C22.275 9.925 21.825 9.125 21.25 8.375C20.925 7.975 20.575 7.575 20.175 7.25C18.575 5.8 16.5 5 14.325 5C9.45 5 5.5 8.95 5.5 13.825C5.5 16 6.3 18.075 7.75 19.675C8.075 20.075 8.475 20.425 8.875 20.75C9.625 21.325 10.425 21.775 11.3 22.075C11.6 22.2 11.925 22.3 12.225 22.375C12.425 22.425 12.6 22.45 12.775 22.475C13 22.525 13.2 22.55 13.425 22.575C13.725 22.6 14.025 22.625 14.325 22.625C19.175 22.625 23.125 18.675 23.125 13.825C23.125 13.525 23.1 13.225 23.075 12.925Z" fill="#EF30C5"/>
<path d="M53.25 40.35C53 40.025 52.675 39.7 52.325 39.425C52.275 39.375 52.2 39.3 52.125 39.25C51.45 38.725 50.7 38.3 49.925 38C49.85 37.95 49.775 37.925 49.7 37.925C49.425 37.825 49.15 37.725 48.875 37.65C48.45 37.55 48 37.475 47.575 37.425C47.275 37.4 46.975 37.375 46.675 37.375C41.825 37.375 37.875 41.325 37.875 46.175C37.875 46.475 37.9 46.775 37.925 47.075C37.975 47.5 38.05 47.95 38.15 48.375C38.225 48.65 38.325 48.925 38.425 49.2C38.425 49.275 38.45 49.35 38.5 49.425C38.8 50.2 39.225 50.95 39.75 51.625C39.8 51.7 39.875 51.75 39.925 51.825C40.2 52.175 40.525 52.5 40.85 52.75C42.45 54.2 44.5 55 46.675 55C51.55 55 55.5 51.05 55.5 46.175C55.5 44 54.7 41.95 53.25 40.35Z" fill="#EF30C5"/>
<path d="M14.325 37.375C14.025 37.375 13.725 37.4 13.425 37.425C13 37.475 12.55 37.55 12.125 37.65C11.85 37.725 11.575 37.825 11.3 37.925C11.225 37.925 11.15 37.95 11.075 38C10.3 38.3 9.55 38.725 8.875 39.25C8.8 39.3 8.75 39.375 8.675 39.425C8.325 39.7 8 40.025 7.75 40.35C6.3 41.95 5.5 44 5.5 46.175C5.5 51.05 9.45 55 14.325 55C16.5 55 18.575 54.2 20.175 52.75C20.575 52.425 20.925 52.025 21.25 51.625C21.775 50.95 22.2 50.2 22.5 49.425C22.55 49.35 22.575 49.275 22.575 49.2C22.675 48.925 22.775 48.65 22.85 48.375C22.95 47.95 23.025 47.5 23.075 47.075C23.1 46.775 23.125 46.475 23.125 46.175C23.125 41.325 19.175 37.375 14.325 37.375Z" fill="#EF30C5"/>
<path d="M46.675 5C44.5 5 42.45 5.8 40.85 7.25C40.525 7.5 40.2 7.825 39.925 8.175C39.875 8.225 39.8 8.3 39.75 8.375C39.225 9.05 38.8 9.8 38.5 10.575C38.45 10.65 38.425 10.725 38.425 10.8C38.325 11.075 38.225 11.35 38.15 11.625C38.05 12.05 37.975 12.5 37.925 12.925C37.9 13.225 37.875 13.525 37.875 13.825C37.875 18.675 41.825 22.625 46.675 22.625C46.975 22.625 47.275 22.6 47.575 22.575C48 22.525 48.45 22.45 48.875 22.35C49.15 22.275 49.425 22.175 49.7 22.075C49.775 22.075 49.85 22.05 49.925 22C50.7 21.7 51.45 21.275 52.125 20.75C52.525 20.425 52.925 20.075 53.25 19.675C54.7 18.075 55.5 16 55.5 13.825C55.5 8.95 51.55 5 46.675 5Z" fill="#EF30C5"/>
<path opacity="0.4" d="M39.925 51.825C39.875 51.75 39.8 51.7 39.75 51.625C39.225 50.95 38.8 50.2 38.5 49.425C38.525 49.5 38.55 49.575 38.575 49.65C33.55 51.75 27.55 51.775 22.425 49.65C22.45 49.575 22.475 49.5 22.5 49.425C22.2 50.2 21.775 50.95 21.25 51.625C20.925 52.025 20.575 52.425 20.175 52.75C23.375 54.225 26.925 55 30.5 55C34.15 55 37.625 54.25 40.85 52.75C40.525 52.5 40.2 52.175 39.925 51.825ZM9.25 30C9.25 27.225 9.8 24.45 10.85 21.925C10.875 21.925 10.925 21.95 10.95 21.95C10.65 21.825 10.325 21.675 10.05 21.525C9.65 21.3 9.25 21.05 8.875 20.75C8.475 20.425 8.075 20.075 7.75 19.675C6.275 22.875 5.5 26.425 5.5 30C5.5 33.65 6.25 37.125 7.75 40.35C8 40.025 8.325 39.7 8.675 39.425C8.75 39.375 8.8 39.3 8.875 39.25C9.55 38.725 10.3 38.3 11.075 38C11 38.025 10.925 38.05 10.85 38.075C9.775 35.55 9.25 32.825 9.25 30ZM53.25 19.675C52.925 20.075 52.525 20.425 52.125 20.75C51.45 21.275 50.7 21.7 49.925 22C50 21.975 50.075 21.95 50.15 21.925C51.2 24.45 51.75 27.225 51.75 30C51.75 32.825 51.225 35.55 50.15 38.075C50.075 38.05 50 38.025 49.925 38C50.7 38.3 51.45 38.725 52.125 39.25C52.2 39.3 52.275 39.375 52.325 39.425C52.675 39.7 53 40.025 53.25 40.35C54.75 37.125 55.5 33.65 55.5 30C55.5 26.425 54.725 22.875 53.25 19.675ZM30.5 5C26.925 5 23.375 5.775 20.175 7.25C20.575 7.575 20.925 7.975 21.25 8.375C21.55 8.75 21.8 9.15 22.025 9.55C22.175 9.825 22.325 10.15 22.45 10.45C22.45 10.425 22.425 10.375 22.425 10.35C27.525 8.225 33.55 8.25 38.575 10.35C38.55 10.425 38.525 10.5 38.5 10.575C38.8 9.8 39.225 9.05 39.75 8.375C39.8 8.3 39.875 8.225 39.925 8.175C40.2 7.825 40.525 7.5 40.85 7.25C37.625 5.75 34.15 5 30.5 5Z" fill="#EF30C5"/>
</svg>
