<svg width="129" height="129" viewBox="0 0 129 129" fill="none" xmlns="http://www.w3.org/2000/svg">
<path opacity="0.1" d="M49.5 8.66025C58.782 3.30127 70.218 3.30127 79.5 8.66025L105.359 23.5897C114.641 28.9487 120.359 38.8525 120.359 49.5705V79.4295C120.359 90.1475 114.641 100.051 105.359 105.41L79.5 120.34C70.218 125.699 58.782 125.699 49.5 120.34L23.6414 105.41C14.3593 100.051 8.64136 90.1475 8.64136 79.4295V49.5705C8.64136 38.8525 14.3593 28.9487 23.6414 23.5897L49.5 8.66025Z" fill="#CCB910"/>
<path d="M90 91.875H40C38.975 91.875 38.125 91.025 38.125 90C38.125 88.975 38.975 88.125 40 88.125H90C91.025 88.125 91.875 88.975 91.875 90C91.875 91.025 91.025 91.875 90 91.875Z" fill="#CCB910"/>
<path opacity="0.4" d="M87.5 59.9499V90H42.375L42.5 59.9249C42.5 58.3999 43.2 56.9501 44.425 56.0001L61.925 42.4C63.725 40.975 66.275 40.975 68.075 42.4L71.425 45L82.5 53.6L85.575 56.0001C86.8 56.9501 87.5 58.3999 87.5 59.9499Z" fill="#CCB910"/>
<path d="M67.5 77.5H62.5C60.425 77.5 58.75 79.175 58.75 81.25V90H71.25V81.25C71.25 79.175 69.575 77.5 67.5 77.5Z" fill="#CCB910"/>
<path d="M58.75 69.375H53.75C52.375 69.375 51.25 68.25 51.25 66.875V63.125C51.25 61.75 52.375 60.625 53.75 60.625H58.75C60.125 60.625 61.25 61.75 61.25 63.125V66.875C61.25 68.25 60.125 69.375 58.75 69.375Z" fill="#CCB910"/>
<path d="M76.25 69.375H71.25C69.875 69.375 68.75 68.25 68.75 66.875V63.125C68.75 61.75 69.875 60.625 71.25 60.625H76.25C77.625 60.625 78.75 61.75 78.75 63.125V66.875C78.75 68.25 77.625 69.375 76.25 69.375Z" fill="#CCB910"/>
<path d="M82.5 53.6L71.425 45H79.95C81.325 45 82.45 46.1 82.45 47.475L82.5 53.6Z" fill="#CCB910"/>
</svg>
