<svg width="60" height="60" viewBox="0 0 60 60" fill="none" xmlns="http://www.w3.org/2000/svg">
<path d="M55 56.875H5C3.975 56.875 3.125 56.025 3.125 55C3.125 53.975 3.975 53.125 5 53.125H55C56.025 53.125 56.875 53.975 56.875 55C56.875 56.025 56.025 56.875 55 56.875Z" fill="#CCB910"/>
<path opacity="0.4" d="M52.5 24.9499V55H7.375L7.5 24.9249C7.5 23.3999 8.2 21.9501 9.425 21.0001L26.925 7.40005C28.725 5.97505 31.275 5.97505 33.075 7.40005L36.425 9.99999L47.5 18.6L50.575 21.0001C51.8 21.9501 52.5 23.3999 52.5 24.9499Z" fill="#CCB910"/>
<path d="M32.5 42.5H27.5C25.425 42.5 23.75 44.175 23.75 46.25V55H36.25V46.25C36.25 44.175 34.575 42.5 32.5 42.5Z" fill="#CCB910"/>
<path d="M23.75 34.375H18.75C17.375 34.375 16.25 33.25 16.25 31.875V28.125C16.25 26.75 17.375 25.625 18.75 25.625H23.75C25.125 25.625 26.25 26.75 26.25 28.125V31.875C26.25 33.25 25.125 34.375 23.75 34.375Z" fill="#CCB910"/>
<path d="M41.25 34.375H36.25C34.875 34.375 33.75 33.25 33.75 31.875V28.125C33.75 26.75 34.875 25.625 36.25 25.625H41.25C42.625 25.625 43.75 26.75 43.75 28.125V31.875C43.75 33.25 42.625 34.375 41.25 34.375Z" fill="#CCB910"/>
<path d="M47.5 18.6L36.425 10H44.95C46.325 10 47.45 11.1 47.45 12.475L47.5 18.6Z" fill="#CCB910"/>
</svg>
