<svg width="60" height="60" viewBox="0 0 60 60" fill="none" xmlns="http://www.w3.org/2000/svg">
<path opacity="0.4" d="M51.55 21.75C48.95 10.175 38.85 5 30 5C30 5 30 5 29.975 5C21.15 5 11.075 10.175 8.44999 21.725C5.49999 34.625 13.4 45.55 20.55 52.45C23.2 55 26.6 56.275 30 56.275C33.4 56.275 36.8 55 39.425 52.45C46.575 45.55 54.475 34.65 51.55 21.75Z" fill="#F2742D"/>
<path d="M36.875 25.625H31.875V20.625C31.875 19.6 31.025 18.75 30 18.75C28.975 18.75 28.125 19.6 28.125 20.625V25.625H23.125C22.1 25.625 21.25 26.475 21.25 27.5C21.25 28.525 22.1 29.375 23.125 29.375H28.125V34.375C28.125 35.4 28.975 36.25 30 36.25C31.025 36.25 31.875 35.4 31.875 34.375V29.375H36.875C37.9 29.375 38.75 28.525 38.75 27.5C38.75 26.475 37.9 25.625 36.875 25.625Z" fill="#F2742D"/>
</svg>
