<svg width="171" height="179" viewBox="0 0 171 179" fill="none" xmlns="http://www.w3.org/2000/svg">
<g opacity="0.1" filter="url(#filter0_d_16_813)">
<path d="M70.5 21.6603C79.782 16.3013 91.218 16.3013 100.5 21.6603L126.359 36.5897C135.641 41.9487 141.359 51.8525 141.359 62.5705V92.4295C141.359 103.147 135.641 113.051 126.359 118.41L100.5 133.34C91.218 138.699 79.782 138.699 70.5 133.34L44.6414 118.41C35.3593 113.051 29.6414 103.147 29.6414 92.4295V62.5705C29.6414 51.8525 35.3593 41.9487 44.6414 36.5897L70.5 21.6603Z" fill="#F2742D"/>
</g>
<path opacity="0.4" d="M107.55 69.75C104.95 58.175 94.85 53 86 53C86 53 86 53 85.975 53C77.15 53 67.075 58.175 64.45 69.725C61.5 82.625 69.4 93.55 76.55 100.45C79.2 103 82.6 104.275 86 104.275C89.4 104.275 92.8 103 95.425 100.45C102.575 93.55 110.475 82.65 107.55 69.75Z" fill="#F2742D"/>
<path d="M92.875 73.625H87.875V68.625C87.875 67.6 87.025 66.75 86 66.75C84.975 66.75 84.125 67.6 84.125 68.625V73.625H79.125C78.1 73.625 77.25 74.475 77.25 75.5C77.25 76.525 78.1 77.375 79.125 77.375H84.125V82.375C84.125 83.4 84.975 84.25 86 84.25C87.025 84.25 87.875 83.4 87.875 82.375V77.375H92.875C93.9 77.375 94.75 76.525 94.75 75.5C94.75 74.475 93.9 73.625 92.875 73.625Z" fill="#F2742D"/>
<defs>
<filter id="filter0_d_16_813" x="0.641357" y="0.641113" width="169.717" height="177.718" filterUnits="userSpaceOnUse" color-interpolation-filters="sRGB">
<feFlood flood-opacity="0" result="BackgroundImageFix"/>
<feColorMatrix in="SourceAlpha" type="matrix" values="0 0 0 0 0 0 0 0 0 0 0 0 0 0 0 0 0 0 127 0" result="hardAlpha"/>
<feOffset dy="12"/>
<feGaussianBlur stdDeviation="14.5"/>
<feComposite in2="hardAlpha" operator="out"/>
<feColorMatrix type="matrix" values="0 0 0 0 0.925063 0 0 0 0 0.948039 0 0 0 0 0.982503 0 0 0 1 0"/>
<feBlend mode="normal" in2="BackgroundImageFix" result="effect1_dropShadow_16_813"/>
<feBlend mode="normal" in="SourceGraphic" in2="effect1_dropShadow_16_813" result="shape"/>
</filter>
</defs>
</svg>
