<svg width="129" height="129" viewBox="0 0 129 129" fill="none" xmlns="http://www.w3.org/2000/svg">
<path opacity="0.1" d="M49.5 8.66025C58.782 3.30127 70.218 3.30127 79.5 8.66025L105.359 23.5897C114.641 28.9487 120.359 38.8525 120.359 49.5705V79.4295C120.359 90.1475 114.641 100.051 105.359 105.41L79.5 120.34C70.218 125.699 58.782 125.699 49.5 120.34L23.6414 105.41C14.3593 100.051 8.64136 90.1475 8.64136 79.4295V49.5705C8.64136 38.8525 14.3593 28.9487 23.6414 23.5897L49.5 8.66025Z" fill="#16BE6A"/>
<path opacity="0.4" d="M57.5 40C50.95 40 45.625 45.325 45.625 51.875C45.625 58.3 50.65 63.5 57.2 63.725C57.4 63.7 57.6 63.7 57.75 63.725C57.8 63.725 57.825 63.725 57.875 63.725C57.9 63.725 57.9 63.725 57.925 63.725C64.325 63.5 69.35 58.3 69.375 51.875C69.375 45.325 64.05 40 57.5 40Z" fill="#16BE6A"/>
<path d="M70.2 70.375C63.225 65.725 51.85 65.725 44.825 70.375C41.65 72.5 39.9 75.375 39.9 78.45C39.9 81.525 41.65 84.375 44.8 86.475C48.3 88.825 52.9 90 57.5 90C62.1 90 66.7 88.825 70.2 86.475C73.35 84.35 75.1 81.5 75.1 78.4C75.075 75.325 73.35 72.475 70.2 70.375Z" fill="#16BE6A"/>
<path opacity="0.4" d="M84.975 53.35C85.375 58.2 81.925 62.45 77.15 63.025C77.125 63.025 77.125 63.025 77.1 63.025H77.025C76.875 63.025 76.725 63.025 76.6 63.075C74.175 63.2 71.95 62.425 70.275 61C72.85 58.7 74.325 55.25 74.025 51.5C73.85 49.475 73.15 47.625 72.1 46.05C73.05 45.575 74.15 45.275 75.275 45.175C80.175 44.75 84.55 48.4 84.975 53.35Z" fill="#16BE6A"/>
<path d="M89.975 76.475C89.775 78.9 88.225 81 85.625 82.425C83.125 83.8 79.975 84.45 76.85 84.375C78.65 82.75 79.7 80.725 79.9 78.575C80.15 75.475 78.675 72.5 75.725 70.125C74.05 68.8 72.1 67.75 69.975 66.975C75.5 65.375 82.45 66.45 86.725 69.9C89.025 71.75 90.2 74.075 89.975 76.475Z" fill="#16BE6A"/>
</svg>
