<svg width="129" height="129" viewBox="0 0 129 129" fill="none" xmlns="http://www.w3.org/2000/svg">
<path opacity="0.1" d="M49.5 8.66025C58.782 3.30127 70.218 3.30127 79.5 8.66025L105.359 23.5897C114.641 28.9487 120.359 38.8525 120.359 49.5705V79.4295C120.359 90.1475 114.641 100.051 105.359 105.41L79.5 120.34C70.218 125.699 58.782 125.699 49.5 120.34L23.6414 105.41C14.3593 100.051 8.64136 90.1475 8.64136 79.4295V49.5705C8.64136 38.8525 14.3593 28.9487 23.6414 23.5897L49.5 8.66025Z" fill="#F2742D"/>
<path d="M65 65C71.9036 65 77.5 59.4036 77.5 52.5C77.5 45.5964 71.9036 40 65 40C58.0964 40 52.5 45.5964 52.5 52.5C52.5 59.4036 58.0964 65 65 65Z" fill="#F2742D"/>
<path opacity="0.4" d="M65 71.25C52.475 71.25 42.2749 79.65 42.2749 90C42.2749 90.7 42.8249 91.25 43.5249 91.25H86.475C87.175 91.25 87.725 90.7 87.725 90C87.725 79.65 77.525 71.25 65 71.25Z" fill="#F2742D"/>
<path d="M88.575 71.8501C86.325 69.6001 84.55 70.3251 83.025 71.8501L74.1749 80.7002C73.8249 81.0502 73.5 81.7001 73.425 82.1751L72.95 85.55C72.775 86.775 73.625 87.6251 74.85 87.4501L78.2249 86.975C78.6999 86.9 79.375 86.5751 79.7 86.2251L88.5499 77.3751C90.0999 75.8751 90.825 74.1001 88.575 71.8501Z" fill="#F2742D"/>
</svg>
