<svg width="60" height="60" viewBox="0 0 60 60" fill="none" xmlns="http://www.w3.org/2000/svg">
<path d="M30 30C36.9036 30 42.5 24.4036 42.5 17.5C42.5 10.5964 36.9036 5 30 5C23.0964 5 17.5 10.5964 17.5 17.5C17.5 24.4036 23.0964 30 30 30Z" fill="#F2742D"/>
<path opacity="0.4" d="M30 36.25C17.475 36.25 7.2749 44.65 7.2749 55C7.2749 55.7 7.8249 56.25 8.5249 56.25H51.475C52.175 56.25 52.725 55.7 52.725 55C52.725 44.65 42.525 36.25 30 36.25Z" fill="#F2742D"/>
<path d="M53.575 36.8501C51.325 34.6001 49.55 35.3251 48.025 36.8501L39.1749 45.7002C38.8249 46.0502 38.5 46.7001 38.425 47.1751L37.95 50.55C37.775 51.775 38.625 52.6251 39.85 52.4501L43.2249 51.975C43.6999 51.9 44.375 51.5751 44.7 51.2251L53.5499 42.3751C55.0999 40.8751 55.825 39.1001 53.575 36.8501Z" fill="#F2742D"/>
</svg>
